<?xml version="1.0" encoding="utf-8"?>
<!-- Generator: Adobe Illustrator 16.0.0, SVG Export Plug-In . SVG Version: 6.00 Build 0)  -->
<!DOCTYPE svg PUBLIC "-//W3C//DTD SVG 1.1//EN" "http://www.w3.org/Graphics/SVG/1.1/DTD/svg11.dtd">
<svg version="1.1" id="Layer_1" xmlns="http://www.w3.org/2000/svg" xmlns:xlink="http://www.w3.org/1999/xlink" x="0px" y="0px"
	 width="750px" height="750px" viewBox="0 0 750 750" style="enable-background:new 0 0 750 750;" xml:space="preserve">
<style type="text/css">
<![CDATA[
	.st0{fill:#FFFFFF;}
]]>
</style>
<g>
	<path class="st0" d="M501,568H122.312c-4.224,0-7.312-3.64-7.312-7.396v-26.075c0-3.757,3.089-6.529,7.312-6.529H501V394H122.312
		c-4.224,0-7.312-3.059-7.312-6.878v-26.51c0-3.819,3.089-6.612,7.312-6.612H501V221H122.312c-4.224,0-7.312-3.7-7.312-7.457
		v-26.075c0-3.757,3.089-6.469,7.312-6.469H501V21.7C461.62,7.654,419.204,0,375,0C167.894,0,0,167.894,0,375s167.894,375,375,375
		c44.204,0,86.62-7.654,126-21.7V568z"/>
	<path class="st0" d="M540,38.165V181h87.079c4.223,0,7.921,2.712,7.921,6.469v26.075c0,3.756-3.698,7.457-7.921,7.457H540v133
		h87.079c4.223,0,7.921,2.793,7.921,6.612v26.51c0,3.819-3.698,6.878-7.921,6.878H540v134h87.079c4.223,0,7.921,2.772,7.921,6.529
		v26.075c0,3.756-3.698,7.396-7.921,7.396H540v143.835C664.377,650.793,750,522.898,750,375S664.377,99.207,540,38.165z"/>
</g>
</svg>
